<?xml version="1.0" encoding="UTF-8" standalone="no"?>
<!-- Created with Inkscape (http://www.inkscape.org/) -->
<svg
   xmlns:dc="http://purl.org/dc/elements/1.1/"
   xmlns:cc="http://creativecommons.org/ns#"
   xmlns:rdf="http://www.w3.org/1999/02/22-rdf-syntax-ns#"
   xmlns:svg="http://www.w3.org/2000/svg"
   xmlns="http://www.w3.org/2000/svg"
   xmlns:sodipodi="http://sodipodi.sourceforge.net/DTD/sodipodi-0.dtd"
   xmlns:inkscape="http://www.inkscape.org/namespaces/inkscape"
   width="200"
   height="200"
   id="svg2"
   sodipodi:version="0.32"
   inkscape:version="0.46"
   version="1.0"
   sodipodi:docname="Polish tv rating system bo (2011).svg"
   inkscape:output_extension="org.inkscape.output.svg.inkscape">
  <defs
     id="defs4" />
  <sodipodi:namedview
     id="base"
     pagecolor="#ffffff"
     bordercolor="#666666"
     borderopacity="1.0"
     gridtolerance="10000"
     guidetolerance="10"
     objecttolerance="10"
     inkscape:pageopacity="0.0"
     inkscape:pageshadow="2"
     inkscape:zoom="1.4"
     inkscape:cx="213.82653"
     inkscape:cy="115.60811"
     inkscape:document-units="px"
     inkscape:current-layer="layer1"
     showgrid="false"
     inkscape:window-width="1280"
     inkscape:window-height="712"
     inkscape:window-x="-4"
     inkscape:window-y="-4" />
  <metadata
     id="metadata7">
    <rdf:RDF>
      <cc:Work
         rdf:about="">
        <dc:format>image/svg+xml</dc:format>
        <dc:type
           rdf:resource="http://purl.org/dc/dcmitype/StillImage" />
      </cc:Work>
    </rdf:RDF>
  </metadata>
  <g
     inkscape:label="Layer 1"
     inkscape:groupmode="layer"
     id="layer1"
     transform="translate(-124.44924,-389.57265)">
    <path
       style="fill:#6fb858;fill-opacity:1;stroke:none;stroke-width:112.40000153000000000;stroke-linecap:butt;stroke-linejoin:round;stroke-miterlimit:4;stroke-opacity:1"
       d="M 150.9773,389.57265 C 136.32484,389.56924 124.44582,401.44826 124.44924,416.10071 L 124.44924,563.05935 C 124.45398,577.70605 136.33062,589.57607 150.9773,589.57265 L 297.93593,589.57265 C 312.57688,589.56791 324.4445,577.70029 324.44924,563.05935 L 324.44924,416.10071 C 324.45265,401.45404 312.58263,389.5774 297.93593,389.57265 L 150.9773,389.57265 z"
       id="rect2383"
       sodipodi:nodetypes="ccccccccc" />
    <g
       id="g3185"
       transform="matrix(0.5,0,0,0.5,62.22462,290.10689)">
      <g
         id="g3156">
        <g
           id="g3181"
           transform="matrix(0.9745762,0,0,0.9745762,13.121613,9.395939)">
          <path
             transform="matrix(1.1110281,0,0,1.1292419,138.19691,196.70338)"
             d="M 124.24877,117.66236 A 31.31473,30.809652 0 1 1 61.619307,117.66236 A 31.31473,30.809652 0 1 1 124.24877,117.66236 z"
             sodipodi:ry="30.809652"
             sodipodi:rx="31.31473"
             sodipodi:cy="117.66236"
             sodipodi:cx="92.934036"
             id="path3152"
             style="opacity:1;fill:#ffffff;fill-opacity:1;stroke:#ffffff;stroke-width:9.30000019;stroke-miterlimit:4;stroke-dasharray:none;stroke-opacity:1"
             sodipodi:type="arc" />
          <path
             transform="matrix(1.1110281,0,0,1.1292419,294.19692,196.70338)"
             d="M 124.24877,117.66236 A 31.31473,30.809652 0 1 1 61.619307,117.66236 A 31.31473,30.809652 0 1 1 124.24877,117.66236 z"
             sodipodi:ry="30.809652"
             sodipodi:rx="31.31473"
             sodipodi:cy="117.66236"
             sodipodi:cx="92.934036"
             id="path3154"
             style="opacity:1;fill:#ffffff;fill-opacity:1;stroke:#ffffff;stroke-width:9.30000019;stroke-miterlimit:4;stroke-dasharray:none;stroke-opacity:1"
             sodipodi:type="arc" />
        </g>
        <path
           style="opacity:1;fill:#ffffff;fill-opacity:1;stroke:#ffffff;stroke-width:0.17792588;stroke-miterlimit:4;stroke-dasharray:none;stroke-opacity:1"
           d="M 187.05879,411.92039 C 187.04731,412.37906 187.03589,412.83155 187.03589,413.29194 C 187.03589,460.54234 249.63476,508.12272 324.44923,508.12272 C 399.26372,508.12272 461.86259,460.54231 461.86259,413.29194 C 461.86259,412.83155 461.85116,412.37906 461.83967,411.92039 C 441.03305,435.59151 386.31751,450.58327 324.44923,450.58327 C 262.58096,450.58327 207.86542,435.59151 187.05879,411.92039 z"
           id="path3171"
           sodipodi:nodetypes="cssscsc" />
      </g>
    </g>
  </g>
</svg>
